<svg xmlns="http://www.w3.org/2000/svg" width="16" height="16" viewBox="0 0 32 32" fill="currentColor"><path d="M15 2h1v1h-1zM17 2h1v1h-1zM14 3h4v1h-4zM13 4h6v1h-6zM12 5h7v1h-7zM4 6h1v1h-1zM11 6h9v1h-9zM27 6h1v1h-1zM3 7h4v1h-4zM11 7h1v1h-1zM13 7h7v1h-7zM25 7h4v1h-4zM2 8h7v1h-7zM12 8h2v1h-2zM16 8h4v1h-4zM23 8h7v1h-7zM1 9h8v1h-8zM11 9h1v1h-1zM16 9h4v1h-4zM23 9h8v1h-8zM0 10h10v1h-10zM16 10h3v1h-3zM22 10h10v1h-10zM0 11h1v1h-1zM3 11h7v1h-7zM15 11h4v1h-4zM22 11h7v1h-7zM30 11h2v1h-2zM2 12h2v1h-2zM7 12h3v1h-3zM15 12h3v1h-3zM21 12h4v1h-4zM28 12h2v1h-2zM1 13h2v1h-2zM7 13h3v1h-3zM14 13h4v1h-4zM21 13h4v1h-4zM28 13h3v1h-3zM7 14h3v1h-3zM14 14h4v1h-4zM21 14h3v1h-3zM7 15h4v1h-4zM13 15h5v1h-5zM21 15h3v1h-3zM7 16h4v1h-4zM13 16h4v1h-4zM20 16h4v1h-4zM8 17h4v1h-4zM13 17h5v1h-5zM19 17h5v1h-5zM8 18h15v1h-15zM9 19h13v1h-13zM29 19h2v1h-2zM10 20h13v1h-13zM28 20h2v1h-2zM10 21h14v1h-14zM29 21h1v1h-1zM9 22h15v1h-15zM29 22h1v1h-1zM9 23h16v1h-16zM29 23h1v1h-1zM10 24h16v1h-16zM29 24h2v1h-2zM9 25h18v1h-18zM29 25h2v1h-2zM9 26h3v1h-3zM15 26h15v1h-15zM9 27h3v1h-3zM15 27h2v1h-2zM19 27h2v1h-2zM23 27h7v1h-7zM8 28h3v1h-3zM14 28h3v1h-3zM18 28h3v1h-3zM23 28h3v1h-3zM6 29h5v1h-5zM13 29h3v1h-3zM17 29h4v1h-4zM22 29h4v1h-4zM8 30h1v1h-1zM18 30h2v1h-2z"/></svg>